<svg version="1.2" xmlns="http://www.w3.org/2000/svg" viewBox="0 0 363 439" width="363" height="439"><style>.a{fill:#f2f2f2}.b{fill:#0c0c0c}.c{fill:#ccc}.d{fill:#e6e6e6}.e{fill:#e9c450}.f{fill:#ffb6b6}.g{fill:#fe8f23}.h{fill:#2f2e41}.i{fill:#3f3d56}.j{fill:#fff}</style><path class="a" d="m336.5 37.1h-286c-10.5 0-19 8.5-19 19v196c0 10.5 8.5 19 19 19h286c10.5 0 19-8.5 19-19v-196c0-10.5-8.5-19-19-19z"/><path fill-rule="evenodd" class="b" d="m324.5 71.2v196c0 10.5-8.6 19-19 19h-286c-10.5 0-19-8.5-19-19v-196c0-10.5 8.5-19 19-19h286c10.4 0 19 8.5 19 19zm-2 0c0-9.4-7.6-17-17-17h-286c-9.4 0-17 7.6-17 17v196c0 9.4 7.6 17 17 17h228.3c41.2 0 74.7-33.5 74.7-74.7z"/><path class="c" d="m41.3 243.7l-1.7-1q1.7-2.7 3.4-5.1l1.6 1.2q-1.7 2.3-3.3 4.9z"/><path class="c" d="m52.3 229.5l-1.4-1.4c3.1-3.2 6.3-5.8 9.6-8l1.1 1.7c-3.2 2-6.3 4.6-9.3 7.7zm49.9-12.7c-2.3 0-4.5-0.3-6.1-0.5l0.3-2c1.6 0.3 3.6 0.5 5.8 0.5q3 0 6-0.6l0.4 1.9c-2.2 0.5-4.2 0.7-6.4 0.7zm-29.9-0.2l-0.6-1.9q3.3-1 6.6-1.5c2-0.3 3.8-0.5 5.7-0.5h0.1v2h-0.1c-1.8 0-3.6 0.2-5.4 0.4q-3.2 0.5-6.3 1.5zm47.7-5.8l-1.3-1.5c2.8-2.3 4.7-5.1 6.8-8l0.9-1.2 1.6 1.2-0.8 1.1c-2.2 3.1-4.3 5.9-7.2 8.4zm16-18.3l-1.2-1.6c2.7-2.1 5.7-3.8 9.3-5.2q0.9-0.4 1.8-0.7l0.6 1.9q-0.8 0.3-1.7 0.6c-3.3 1.4-6.2 3-8.8 5zm24.2-7q-1 0-2 0l0.1-2q0.9 0 1.9 0c2.4 0 5.7-0.1 10.2-0.6l0.2 2c-4.6 0.6-8 0.6-10.4 0.6zm22.6-2.6l-0.4-2c3.6-0.7 7.7-1.6 11.9-2.6l0.5 1.9c-4.2 1.1-8.4 2-12 2.7zm23.8-6.5l-0.8-1.8c4-1.6 7.5-3.5 10.7-5.6l1.1 1.6c-3.3 2.3-6.9 4.2-11 5.8zm20.2-14.3l-1.7-1.1q0.9-1.2 1.6-2.3c1.3-2.2 2.8-4.4 6.1-7.1l0.3-0.2 1.2 1.6-0.2 0.1c-3.1 2.6-4.4 4.6-5.8 6.7-0.4 0.7-0.9 1.5-1.5 2.3zm17.9-15l-0.7-1.8c3.5-1.4 7.6-2.6 11.9-3.4l0.4 2c-4.2 0.8-8.1 1.9-11.6 3.2z"/><path class="c" d="m268.5 142.4l-0.1-2q2.9-0.2 6.1-0.2v2q-3.1 0-6 0.2z"/><path class="d" d="m63.6 73.9h-28c-1.4 0-2.6 1.1-2.6 2.5 0 1.4 1.2 2.6 2.6 2.6h28c1.4 0 2.6-1.2 2.6-2.6 0-1.4-1.2-2.5-2.6-2.5z"/><path class="d" d="m110.6 73.9h-28c-1.4 0-2.6 1.1-2.6 2.5 0 1.4 1.2 2.6 2.6 2.6h28c1.4 0 2.6-1.2 2.6-2.6 0-1.4-1.2-2.5-2.6-2.5z"/><path class="d" d="m157.6 73.9h-28c-1.4 0-2.6 1.1-2.6 2.5 0 1.4 1.2 2.6 2.6 2.6h28c1.4 0 2.6-1.2 2.6-2.6 0-1.4-1.2-2.5-2.6-2.5z"/><path class="d" d="m33 242.2h255v2h-255z"/><path class="c" d="m274.5 96.2c-18.1 0.5-31.7 5.8-40.3 15.8-3.1 3.8-4.4 6.7-5.8 9.8-1.3 3-2.7 6.2-5.9 10.3v-3.4c2-2.9 3-5.4 4.1-7.7 1.4-3.3 2.8-6.3 6.1-10.3 9-10.5 23-16 41.7-16.5z"/><path class="e" d="m228.4 121.8c-1.3 3-2.7 6.2-5.9 10.3q-0.6 0.7-1.3 1.5c-11.5 13.8-27 18.3-39.4 22q-1.2 0.3-2.3 0.6c-11.1 3-17.1 2.9-21.7 2.8-4.5-0.1-7.5-0.1-12.8 3-9.8 5.5-13.9 13.7-17.7 21.6-4.1 8.2-7.8 15.9-17.5 19.5-6.7 2.5-11.4 1.2-16.3-0.1-4.3-1.1-12-28.9-18.8-33-14.1 3-22.6 49-33.3 73.6l-1.8-0.8c10.9-25.3 19.9-71.6 34.7-74.7 6.5-1.4 15.2 31.8 19.7 33 4.6 1.2 9 2.4 15.1 0.1 8.9-3.3 12.4-10.3 16.4-18.4 3.8-7.8 8.1-16.7 18.5-22.6 5.8-3.3 9.2-3.3 13.9-3.2 4.4 0.1 10.5 0.2 21.6-2.9q0.8-0.2 1.7-0.5c12.2-3.5 27.3-7.9 38.5-21.2q1.6-2 2.8-3.7c2-2.9 3-5.4 4.1-7.7 1.4-3.3 3.2-2.3 1.8 0.8z"/><path class="f" d="m121.8 350.6c-0.8-2.8-2.2-5.1-3.8-6.8l-5.8-26.7-12.8 3.1 7.3 26.8c-0.5 2.2-0.4 4.9 0.4 7.7 1.8 6.3 6.6 10.5 10.6 9.3 4.1-1.1 5.9-7.1 4.1-13.4z"/><path class="g" d="m120 175.2c0 0-20.2-0.4-25.3 14.3-4.7 13.4-10.2 50.1-7.2 52.3l12.7 90.5 18.2-2.5-4.7-108.6z"/><path class="b" d="m213.5 343.2l-3.6 95h-47.5l-1.9-42.6-8.5 42.6h-50.9l6.4-73.2 6.5-15.4 4.5-10.4z"/><path class="g" d="m176 156l-33-2-11 14-24 9 11 107-5 64c0 0 70 56 100-6l-8-75 2-87-23-10z"/><path class="f" d="m239 132.8c0.4 3.5-0.1 6.8-1.1 9.4l5.5 32.8-15.7 2.2-3.9-33.6c-1.6-2.3-2.7-5.4-3-8.9-0.9-7.9 2.6-14.7 7.6-15.2 5-0.6 9.8 5.4 10.6 13.3z"/><path class="g" d="m211.7 184.9c-5.4-9.2-18.8-10.1-24.9-1.2-1.6 2.4-1.1 5.1-1.5 8.4-1.7 13.9 24.9 55 43.4 59.7 2.4 0.6 3.8 3.2 6.2 3.8 7.2 1.5 14-4.2 13.6-11.6l-5-94.7-21.1 7.2 1.4 49.1z"/><path class="f" d="m162.4 152.6c-16.1 0-29.1-13-29.1-29.1 0-16 13-29 29.1-29 16.1 0 29.1 13 29.1 29 0 16.1-13 29.1-29.1 29.1z"/><path class="h" d="m189.5 102.2c-0.3 0 3.8-3.9 4-4 4-2-0.1 17.5-3 17-7.1-1.4-10.2-4-13 2.6-0.7 1.9-1.2 4-2.7 5.3-2.1 1.8-5.5 1.7-7.2 3.9-1.3 1.7-0.9 4.3 0.1 6.2 1 2 2.5 3.7 3.4 5.7 1 2.2-3.3 9.4-5 13.5-0.4 1.1-1.5-2-2.6-2.3-1.3-0.4-3.3 2.8-5.4 2.2-2-0.6-4.3-1.2-6.5-1.8-6.2-1.7-7.8 0.8-8.1 0.7l-3.9-4.1c-1.3-0.9-1.2-4.1-2.1-4.9-0.8-0.7-2.7 0.9-3.3 0.2-2.7-3.2-3.4-6.5-5-12.9-1.5-5.8-4.6-23.3 1.8-24.1 6-0.8 1.6-9.1 7.6-8.8-0.4-1.5 0.3-3.1 1.4-4.3 1.1-1.1 2.5-1.8 4-2.4 7.1-2.9 5.9-5.4 13.5-3.7 0.7-1.1 11.6-0.4 13 0 0.1 0-3.4 0.8 2 0-0.2 1.2 3.2 1.8 3 3 0.7-1 8.8 4.8 9 6 0.2 1.5-2.1 0.7-0.5 1 0.9 0.1 2.4 1.9 2.3 2.8q0.9-1.3 1.9-2.6 0.2 0 0.4 0.1c3 0.5-0.5 10.5-0.4 7.4 0.3-5.7 4.3-2.4 1.3-1.7z"/><path class="i" d="m300.8 256.9c0.3 0.6 1 0.6 1.3 0 1.5-3.9 3.7-8.2 6.2-11.5 0.3-0.5-0.2-1.2-0.8-1l-5.2 1.9v-32.1h-1.7v32.1l-5.2-1.9c-0.6-0.2-1.2 0.5-0.8 1 2.4 3.3 4.7 7.6 6.2 11.5z"/><path class="i" d="m334.8 289.9c-0.1 0.6 0.5 1.1 1 0.8 3.6-2 8-4 12-5.1 0.6-0.2 0.6-1.1 0-1.3l-5.2-1.7 19.9-25.2-1.3-1-20 25.1-2.9-4.7c-0.3-0.6-1.2-0.3-1.2 0.3-0.2 4.1-1.1 8.9-2.3 12.8z"/><path class="d" d="m318.6 311.3h-33.7c-2.1 0-3.8-1.7-3.8-3.7-4.5-13.1-4.4-25.8 0-38.4 0-2.1 1.7-3.8 3.8-3.8h33.7c2.1 0 3.8 1.7 3.8 3.8v38.4c0 2-1.7 3.7-3.8 3.7z"/><path class="j" d="m292.1 271.6c-5.5 0-9.9 4.4-9.9 9.9v30.2c0 2 1.6 3.5 3.5 3.5h18.6c9.4 0 17-7.6 17-16.9v-23.3c0-1.9-1.6-3.4-3.5-3.4z"/><path class="d" d="m309.6 277.7h-15.8c-0.4 0-0.7-0.3-0.7-0.7 0-0.4 0.3-0.7 0.7-0.7h15.8c0.4 0 0.7 0.3 0.7 0.7 0 0.4-0.3 0.7-0.7 0.7z"/><path class="d" d="m309.6 293.1h-15.8c-0.4 0-0.7-0.3-0.7-0.7 0-0.4 0.3-0.8 0.7-0.8h15.8c0.4 0 0.7 0.4 0.7 0.8 0 0.4-0.3 0.7-0.7 0.7z"/><path class="d" d="m318.1 285.4h-32.8c-0.4 0-0.7-0.3-0.7-0.7 0-0.4 0.3-0.7 0.7-0.7h32.8c0.4 0 0.7 0.3 0.7 0.7 0 0.4-0.3 0.7-0.7 0.7z"/><path class="d" d="m318.4 299.4h-13.6c-0.4 0-0.7-0.4-0.7-0.8 0-0.4 0.3-0.7 0.7-0.7h13.6c0.4 0 0.8 0.3 0.8 0.7 0 0.4-0.4 0.8-0.8 0.8z"/><path class="g" d="m12.5 24.7c-6.9 0-12.5-5.4-12.5-12.2 0-6.7 5.6-12.2 12.5-12.2 6.9 0 12.4 5.5 12.4 12.2 0 6.8-5.5 12.2-12.4 12.2z"/><path class="a" d="m112.4 8.3h-67.1c-2.3 0-4.2-1.8-4.2-4.1 0-2.3 1.9-4.2 4.2-4.2h67.1c2.3 0 4.2 1.9 4.2 4.2 0 2.3-1.9 4.1-4.2 4.1z"/><path class="a" d="m164.7 22.5h-119.4c-2.3 0-4.2-1.9-4.2-4.2 0-2.3 1.9-4.2 4.2-4.2h119.4c2.3 0 4.2 1.9 4.2 4.2 0 2.3-1.9 4.2-4.2 4.2z"/></svg>