<svg version="1.2" xmlns="http://www.w3.org/2000/svg" viewBox="0 0 851 741" width="851" height="741"><style>.a{fill:#f2f2f2}.b{fill:#0c0c0c}.c{fill:#fff}.d{fill:#e6e6e6}.e{fill:#2f2e41}.f{fill:#ffb6b6}.g{fill:#cacaca}.h{fill:#e9c450}.i{fill:#3f3d56}</style><path class="a" d="m766.9 385.5c0 22.7-2.1 45.3-6.4 67.5-4.3 22.3-10.7 44.1-19.2 65.1-8.4 21-18.9 41.2-31.2 60.2-12.3 19-26.4 36.8-42.1 53.1q-5.7 6.1-11.8 11.8-9.2 8.8-19 16.8c-15.3 12.6-31.5 23.8-48.6 33.7-17.1 9.8-34.9 18.2-53.4 25-18.5 6.9-37.5 12.2-56.9 15.9-19.4 3.7-39 5.7-58.7 6.1q-4 0.1-8 0.1c-63.4 0-143.2-33.9-215.6-80.8q-9-5.8-17.8-11.9-4.1-2.8-8.2-5.7-10.5-7.4-20.7-15.1-10.2-7.8-20.1-15.9-10-8.1-19.6-16.5-9.6-8.5-19-17.3-6.1-5.7-12-11.6-5.9-6-11.6-12.1-5.7-6.1-11.3-12.4-5.5-6.3-10.8-12.8c-55.6-68.6-67.9-130.5 11.4-143.2q14.1-2.2 27.3-4.8 19.2-3.7 36.8-7.9 23.6-5.8 44.4-12.5 7-2.3 13.7-4.6c65.7-23.1 109.7-53.2 139.7-85.9q7.6-8.3 14-16.8 2.5-3.2 4.8-6.5 2.4-3.3 4.6-6.7 2.2-3.4 4.3-6.9 2.2-3.4 4.1-7 2.8-4.9 5.3-9.9 2.6-5 4.9-10.2 2.3-5.1 4.3-10.4 2.1-5.2 4-10.5l0.2-0.8c23.9-68.7 16.6-132.5 42.9-153.8 112.4-91.3 252.3 38.6 318 191.9q4.9 11.5 9.3 23.3 2 5.2 3.8 10.4 4.8 13.7 8.7 27.5 1.5 5.3 2.9 10.5 1.4 5.7 2.7 11.3c6.4 27.5 9.9 54.7 9.9 80.3z"/><path class="b" d="m419.6 740.7q-4 0.1-8 0.1c-63.4 0-143.2-33.9-215.6-80.8q-9-5.8-17.8-11.9l5.1-31.4 156.2-20.7 78.4 59.9z"/><path class="c" d="m427.1 180h-22.3q-0.5 0.1-1 0.2-0.4 0.2-0.8 0.6-0.4 0.4-0.6 0.9-0.2 0.4-0.2 0.9v22.3q0 0.5 0.2 1 0.2 0.5 0.6 0.9 0.4 0.3 0.8 0.5 0.5 0.2 1 0.2h22.3q0.5 0 1-0.2 0.5-0.2 0.8-0.5 0.4-0.4 0.6-0.9 0.2-0.5 0.2-1v-22.3q0-0.5-0.2-0.9-0.2-0.5-0.6-0.9-0.3-0.4-0.8-0.6-0.5-0.1-1-0.2z"/><path class="d" d="m427.1 218h-22.3q-0.5 0-1 0.2-0.4 0.2-0.8 0.6-0.4 0.3-0.6 0.8-0.2 0.5-0.2 1v22.3q0 0.5 0.2 1 0.2 0.4 0.6 0.8 0.4 0.4 0.8 0.6 0.5 0.2 1 0.2h22.3q0.5 0 1-0.2 0.5-0.2 0.8-0.6 0.4-0.4 0.6-0.8 0.2-0.5 0.2-1v-22.3q0-0.5-0.2-1-0.2-0.5-0.6-0.8-0.3-0.4-0.8-0.6-0.5-0.2-1-0.2z"/><path class="d" d="m427.1 255.9h-22.3q-0.5 0.1-1 0.2-0.4 0.2-0.8 0.6-0.4 0.4-0.6 0.9-0.2 0.4-0.2 0.9v22.3q0 0.5 0.2 1 0.2 0.5 0.6 0.8 0.4 0.4 0.8 0.6 0.5 0.2 1 0.2h22.3q0.5 0 1-0.2 0.5-0.2 0.8-0.6 0.4-0.3 0.6-0.8 0.2-0.5 0.2-1v-22.3q0-0.5-0.2-0.9-0.2-0.5-0.6-0.9-0.3-0.4-0.8-0.6-0.5-0.1-1-0.2z"/><path class="d" d="m429.7 296q-0.1-0.4-0.4-0.8-0.2-0.4-0.5-0.7-0.4-0.3-0.8-0.4-0.4-0.2-0.9-0.2h-22.3q-0.5 0-1 0.2-0.4 0.2-0.8 0.6-0.4 0.3-0.6 0.8-0.2 0.5-0.2 1v22.3q0 0.5 0.2 1 0.2 0.4 0.6 0.8 0.4 0.4 0.8 0.6 0.5 0.2 1 0.2h22.3q0.5 0 1-0.2 0.5-0.2 0.8-0.6 0.4-0.4 0.6-0.8 0.2-0.5 0.2-1v-22.3q0-0.1 0-0.1 0-0.1 0-0.1 0-0.1 0-0.1 0-0.1 0-0.2z"/><path class="d" d="m428.1 332q-0.1 0-0.2 0-0.2-0.1-0.3-0.1-0.1 0-0.2 0-0.2-0.1-0.3-0.1h-22.3q-0.5 0-1 0.2-0.4 0.2-0.8 0.6-0.4 0.4-0.6 0.9-0.2 0.4-0.2 0.9v22.3q0 0.5 0.2 1 0.2 0.5 0.6 0.9 0.4 0.3 0.8 0.5 0.5 0.2 1 0.2h22.3q0.5 0 1-0.2 0.5-0.2 0.8-0.6 0.4-0.3 0.6-0.8 0.2-0.5 0.2-1v-22.3q0-0.3-0.1-0.7-0.1-0.4-0.3-0.7-0.2-0.3-0.5-0.6-0.3-0.2-0.7-0.4z"/><path class="d" d="m473.9 180h-22.3q-0.5 0.1-1 0.2-0.5 0.2-0.8 0.6-0.4 0.4-0.6 0.9-0.2 0.4-0.2 0.9v22.3q0 0.5 0.2 1 0.2 0.5 0.6 0.9 0.3 0.3 0.8 0.5 0.5 0.2 1 0.2h22.3q0.5 0 1-0.2 0.4-0.2 0.8-0.5 0.4-0.4 0.6-0.9 0.2-0.5 0.2-1v-22.3q0-0.5-0.2-0.9-0.2-0.5-0.6-0.9-0.4-0.4-0.8-0.6-0.5-0.1-1-0.2z"/><path class="b" d="m473.9 218h-22.3q-0.5 0-1 0.2-0.5 0.2-0.8 0.6-0.4 0.3-0.6 0.8-0.2 0.5-0.2 1v22.3q0 0.5 0.2 1 0.2 0.4 0.6 0.8 0.3 0.4 0.8 0.6 0.5 0.2 1 0.2h22.3q0.5 0 1-0.2 0.4-0.2 0.8-0.6 0.4-0.4 0.6-0.8 0.2-0.5 0.2-1v-22.3q0-0.5-0.2-1-0.2-0.5-0.6-0.8-0.4-0.4-0.8-0.6-0.5-0.2-1-0.2z"/><path class="b" d="m473.9 255.9h-22.3q-0.5 0.1-1 0.2-0.5 0.2-0.8 0.6-0.4 0.4-0.6 0.9-0.2 0.4-0.2 0.9v22.3q0 0.5 0.2 1 0.2 0.5 0.6 0.8 0.3 0.4 0.8 0.6 0.5 0.2 1 0.2h22.3q0.5 0 1-0.2 0.4-0.2 0.8-0.6 0.4-0.3 0.6-0.8 0.2-0.5 0.2-1v-22.3q0-0.5-0.2-0.9-0.2-0.5-0.6-0.9-0.4-0.4-0.8-0.6-0.5-0.1-1-0.2z"/><path class="b" d="m473.9 293.9h-22.3q-0.4 0-0.8 0.1-0.4 0.2-0.7 0.4-0.4 0.2-0.6 0.6-0.2 0.3-0.4 0.7 0 0.1 0 0.2 0 0.1-0.1 0.2 0 0.1 0 0.2 0 0.1 0 0.2v22.3q0 0.5 0.2 1 0.2 0.4 0.6 0.8 0.3 0.4 0.8 0.6 0.5 0.2 1 0.2h22.3q0.5 0 1-0.2 0.4-0.2 0.8-0.6 0.4-0.4 0.6-0.8 0.2-0.5 0.2-1v-22.3q0-0.5-0.2-1-0.2-0.5-0.6-0.8-0.4-0.4-0.8-0.6-0.5-0.2-1-0.2z"/><path class="d" d="m473.9 331.8h-22.3q-0.5 0-1 0.2-0.5 0.2-0.8 0.6-0.4 0.4-0.6 0.9-0.2 0.4-0.2 0.9v22.3q0 0.5 0.2 1 0.2 0.5 0.6 0.8 0.3 0.4 0.8 0.6 0.5 0.2 1 0.2h22.3q0.5 0 1-0.2 0.4-0.2 0.8-0.6 0.4-0.3 0.6-0.8 0.2-0.5 0.2-1v-22.3q0-0.5-0.2-0.9-0.2-0.5-0.6-0.9-0.4-0.4-0.8-0.6-0.5-0.1-1-0.2z"/><path class="b" d="m520.6 180h-22.2q-0.6 0.1-1 0.2-0.5 0.2-0.9 0.6-0.3 0.4-0.5 0.9-0.2 0.4-0.2 0.9v22.3q0 0.5 0.2 1 0.2 0.5 0.5 0.9 0.4 0.3 0.9 0.5 0.4 0.2 1 0.2h22.2q0.5 0 1-0.2 0.5-0.2 0.9-0.5 0.3-0.4 0.5-0.9 0.2-0.5 0.2-1v-22.3q0-0.5-0.2-0.9-0.2-0.5-0.5-0.9-0.4-0.4-0.9-0.6-0.5-0.1-1-0.2z"/><path class="b" d="m520.6 218h-22.2q-0.6 0-1 0.2-0.5 0.2-0.9 0.6-0.3 0.3-0.5 0.8-0.2 0.5-0.2 1v22.3q0 0.5 0.2 1 0.2 0.4 0.5 0.8 0.4 0.4 0.9 0.6 0.4 0.2 1 0.2h22.2q0.5 0 1-0.2 0.5-0.2 0.9-0.6 0.3-0.4 0.5-0.8 0.2-0.5 0.2-1v-22.3q0-0.5-0.2-1-0.2-0.5-0.5-0.8-0.4-0.4-0.9-0.6-0.5-0.2-1-0.2z"/><path class="d" d="m520.6 255.9h-22.2q-0.6 0.1-1 0.2-0.5 0.2-0.9 0.6-0.3 0.4-0.5 0.9-0.2 0.4-0.2 0.9v22.3q0 0.5 0.2 1 0.2 0.5 0.5 0.8 0.4 0.4 0.9 0.6 0.4 0.2 1 0.2h22.2q0.5 0 1-0.2 0.5-0.2 0.9-0.6 0.3-0.3 0.5-0.8 0.2-0.5 0.2-1v-22.3q0-0.5-0.2-0.9-0.2-0.5-0.5-0.9-0.4-0.4-0.9-0.6-0.5-0.1-1-0.2z"/><path class="b" d="m520.6 293.9h-22.2q-0.6 0-1 0.2-0.5 0.2-0.9 0.6-0.3 0.3-0.5 0.8-0.2 0.5-0.2 1v22.3q0 0.5 0.2 1 0.2 0.4 0.5 0.8 0.4 0.4 0.9 0.6 0.4 0.2 1 0.2h22.2q0.5 0 1-0.2 0.5-0.2 0.9-0.6 0.3-0.4 0.5-0.8 0.2-0.5 0.2-1v-22.3q0-0.5-0.2-1-0.2-0.5-0.5-0.8-0.4-0.4-0.9-0.6-0.5-0.2-1-0.2z"/><path class="b" d="m520.6 331.8h-22.2q-0.6 0-1 0.2-0.5 0.2-0.9 0.6-0.3 0.4-0.5 0.9-0.2 0.4-0.2 0.9v22.3q0 0.5 0.2 1 0.2 0.5 0.5 0.8 0.4 0.4 0.9 0.6 0.4 0.2 1 0.2h22.2q0.5 0 1-0.2 0.5-0.2 0.9-0.6 0.3-0.3 0.5-0.8 0.2-0.5 0.2-1v-22.3q0-0.5-0.2-0.9-0.2-0.5-0.5-0.9-0.4-0.4-0.9-0.6-0.5-0.1-1-0.2z"/><path class="b" d="m567.4 180h-22.3q-0.5 0.1-1 0.2-0.5 0.2-0.8 0.6-0.4 0.4-0.6 0.9-0.2 0.4-0.2 0.9v22.3q0 0.5 0.2 1 0.2 0.5 0.6 0.9 0.3 0.3 0.8 0.5 0.5 0.2 1 0.2h22.3q0.5 0 1-0.2 0.4-0.2 0.8-0.5 0.4-0.4 0.6-0.9 0.2-0.5 0.2-1v-22.3q0-0.5-0.2-0.9-0.2-0.5-0.6-0.9-0.4-0.4-0.8-0.6-0.5-0.1-1-0.2z"/><path class="c" d="m567.4 218h-22.3q-0.5 0-1 0.2-0.5 0.2-0.8 0.6-0.4 0.3-0.6 0.8-0.2 0.5-0.2 1v22.3q0 0.5 0.2 1 0.2 0.4 0.6 0.8 0.3 0.4 0.8 0.6 0.5 0.2 1 0.2h22.3q0.5 0 1-0.2 0.4-0.2 0.8-0.6 0.4-0.4 0.6-0.8 0.2-0.5 0.2-1v-22.3q0-0.5-0.2-1-0.2-0.5-0.6-0.8-0.4-0.4-0.8-0.6-0.5-0.2-1-0.2z"/><path class="c" d="m567.4 255.9h-22.3q-0.5 0.1-1 0.2-0.5 0.2-0.8 0.6-0.4 0.4-0.6 0.9-0.2 0.4-0.2 0.9v22.3q0 0.5 0.2 1 0.2 0.5 0.6 0.8 0.3 0.4 0.8 0.6 0.5 0.2 1 0.2h22.3q0.5 0 1-0.2 0.4-0.2 0.8-0.6 0.4-0.3 0.6-0.8 0.2-0.5 0.2-1v-22.3q0-0.5-0.2-0.9-0.2-0.5-0.6-0.9-0.4-0.4-0.8-0.6-0.5-0.1-1-0.2z"/><path class="d" d="m567.4 293.9h-22.3q-0.5 0-1 0.2-0.5 0.2-0.8 0.6-0.4 0.3-0.6 0.8-0.2 0.5-0.2 1v22.3q0 0.5 0.2 1 0.2 0.4 0.6 0.8 0.3 0.4 0.8 0.6 0.5 0.2 1 0.2h22.3q0.5 0 1-0.2 0.4-0.2 0.8-0.6 0.4-0.4 0.6-0.8 0.2-0.5 0.2-1v-22.3q0-0.5-0.2-1-0.2-0.5-0.6-0.8-0.4-0.4-0.8-0.6-0.5-0.2-1-0.2z"/><path class="b" d="m567.4 331.8h-22.3q-0.5 0-1 0.2-0.5 0.2-0.8 0.6-0.4 0.4-0.6 0.9-0.2 0.4-0.2 0.9v22.3q0 0.5 0.2 1 0.2 0.5 0.6 0.8 0.3 0.4 0.8 0.6 0.5 0.2 1 0.2h22.3q0.5 0 1-0.2 0.4-0.2 0.8-0.6 0.4-0.3 0.6-0.8 0.2-0.5 0.2-1v-22.3q0-0.5-0.2-0.9-0.2-0.5-0.6-0.9-0.4-0.4-0.8-0.6-0.5-0.1-1-0.2z"/><path class="c" d="m614.1 180h-22.2q-0.5 0.1-1 0.3-0.5 0.1-0.9 0.5-0.3 0.4-0.5 0.9-0.2 0.4-0.2 0.9v22.3q0 0.5 0.2 1 0.2 0.5 0.5 0.9 0.4 0.3 0.9 0.5 0.5 0.2 1 0.2h22.2q0.6 0 1-0.2 0.5-0.2 0.9-0.5 0.3-0.4 0.5-0.9 0.2-0.5 0.2-1v-22.3q0-0.5-0.2-0.9-0.2-0.5-0.5-0.9-0.4-0.4-0.9-0.6-0.4-0.1-1-0.2z"/><path class="c" d="m614.1 218h-22.2q-0.5 0-1 0.2-0.5 0.2-0.9 0.6-0.3 0.3-0.5 0.8-0.2 0.5-0.2 1v22.3q0 0.5 0.2 1 0.2 0.4 0.5 0.8 0.4 0.4 0.9 0.6 0.5 0.2 1 0.2h22.2q0.6 0 1-0.2 0.5-0.2 0.9-0.6 0.3-0.4 0.5-0.8 0.2-0.5 0.2-1v-22.3q0-0.5-0.2-1-0.2-0.5-0.5-0.8-0.4-0.4-0.9-0.6-0.4-0.2-1-0.2z"/><path class="c" d="m614.1 255.9h-22.2q-0.5 0.1-1 0.3-0.5 0.1-0.9 0.5-0.3 0.4-0.5 0.9-0.2 0.4-0.2 0.9v22.3q0 0.5 0.2 1 0.2 0.5 0.5 0.8 0.4 0.4 0.9 0.6 0.5 0.2 1 0.2h22.2q0.6 0 1-0.2 0.5-0.2 0.9-0.6 0.3-0.3 0.5-0.8 0.2-0.5 0.2-1v-22.3q0-0.5-0.2-0.9-0.2-0.5-0.5-0.9-0.4-0.4-0.9-0.6-0.4-0.1-1-0.2z"/><path class="b" d="m614.1 293.9h-22.2q-0.5 0-1 0.2-0.5 0.2-0.9 0.6-0.3 0.3-0.5 0.8-0.2 0.5-0.2 1v22.3q0 0.5 0.2 1 0.2 0.4 0.5 0.8 0.4 0.4 0.9 0.6 0.5 0.2 1 0.2h22.2q0.6 0 1-0.2 0.5-0.2 0.9-0.6 0.3-0.4 0.5-0.8 0.2-0.5 0.2-1v-22.3q0-0.5-0.2-1-0.2-0.5-0.5-0.8-0.4-0.4-0.9-0.6-0.4-0.2-1-0.2z"/><path class="d" d="m614.1 331.8h-22.2q-0.5 0.1-1 0.2-0.5 0.2-0.9 0.6-0.3 0.4-0.5 0.9-0.2 0.4-0.2 0.9v22.3q0 0.5 0.2 1 0.2 0.5 0.5 0.8 0.4 0.4 0.9 0.6 0.5 0.2 1 0.2h22.2q0.6 0 1-0.2 0.5-0.2 0.9-0.6 0.3-0.3 0.5-0.8 0.2-0.5 0.2-1v-22.3q0-0.5-0.2-0.9-0.2-0.5-0.5-0.9-0.4-0.4-0.9-0.6-0.4-0.1-1-0.2z"/><path class="c" d="m660.9 180h-22.3q-0.5 0.1-1 0.3-0.4 0.1-0.8 0.5-0.4 0.4-0.6 0.9-0.2 0.4-0.2 0.9v22.3q0 0.5 0.2 1 0.2 0.5 0.6 0.9 0.4 0.3 0.8 0.5 0.5 0.2 1 0.2h22.3q0.5 0 1-0.2 0.5-0.2 0.8-0.5 0.4-0.4 0.6-0.9 0.2-0.5 0.2-1v-22.3q0-0.5-0.2-0.9-0.2-0.5-0.6-0.9-0.3-0.4-0.8-0.6-0.5-0.1-1-0.2z"/><path class="c" d="m660.9 218h-22.3q-0.5 0-1 0.2-0.4 0.2-0.8 0.6-0.4 0.3-0.6 0.8-0.2 0.5-0.2 1v22.3q0 0.5 0.2 1 0.2 0.4 0.6 0.8 0.4 0.4 0.8 0.6 0.5 0.2 1 0.2h22.3q0.5 0 1-0.2 0.5-0.2 0.8-0.6 0.4-0.4 0.6-0.8 0.2-0.5 0.2-1v-22.3q0-0.5-0.2-1-0.2-0.5-0.6-0.8-0.3-0.4-0.8-0.6-0.5-0.2-1-0.2z"/><path class="b" d="m660.9 255.9h-22.3q-0.5 0.1-1 0.3-0.4 0.1-0.8 0.5-0.4 0.4-0.6 0.9-0.2 0.4-0.2 0.9v22.3q0 0.5 0.2 1 0.2 0.5 0.6 0.8 0.4 0.4 0.8 0.6 0.5 0.2 1 0.2h22.3q0.5 0 1-0.2 0.5-0.2 0.8-0.6 0.4-0.3 0.6-0.8 0.2-0.5 0.2-1v-22.3q0-0.5-0.2-0.9-0.2-0.5-0.6-0.9-0.3-0.4-0.8-0.6-0.5-0.1-1-0.2z"/><path class="d" d="m660.9 293.9h-22.3q-0.5 0-1 0.2-0.4 0.2-0.8 0.6-0.4 0.3-0.6 0.8-0.2 0.5-0.2 1v22.3q0 0.5 0.2 1 0.2 0.4 0.6 0.8 0.4 0.4 0.8 0.6 0.5 0.2 1 0.2h22.3q0.5 0 1-0.2 0.5-0.2 0.8-0.6 0.4-0.4 0.6-0.8 0.2-0.5 0.2-1v-22.3q0-0.5-0.2-1-0.2-0.5-0.6-0.8-0.3-0.4-0.8-0.6-0.5-0.2-1-0.2z"/><path class="c" d="m660.9 331.8h-22.3q-0.5 0.1-1 0.2-0.4 0.2-0.8 0.6-0.4 0.4-0.6 0.9-0.2 0.4-0.2 0.9v22.3q0 0.5 0.2 1 0.2 0.5 0.6 0.8 0.4 0.4 0.8 0.6 0.5 0.2 1 0.2h22.3q0.5 0 1-0.2 0.5-0.2 0.8-0.6 0.4-0.3 0.6-0.8 0.2-0.5 0.2-1v-22.3q0-0.5-0.2-0.9-0.2-0.5-0.6-0.9-0.3-0.4-0.8-0.6-0.5-0.1-1-0.2z"/><path class="b" d="m707.7 180h-22.3q-0.5 0.1-1 0.3-0.5 0.1-0.8 0.5-0.4 0.4-0.6 0.9-0.2 0.4-0.2 0.9v22.3q0 0.5 0.2 1 0.2 0.5 0.6 0.9 0.3 0.3 0.8 0.5 0.5 0.2 1 0.2h22.3q0.5 0 1-0.2 0.4-0.2 0.8-0.5 0.4-0.4 0.6-0.9 0.2-0.5 0.2-1v-22.3q0-0.5-0.2-0.9-0.2-0.5-0.6-0.9-0.4-0.4-0.8-0.6-0.5-0.1-1-0.2z"/><path class="b" d="m707.7 218h-22.3q-0.5 0-1 0.2-0.5 0.2-0.8 0.6-0.4 0.3-0.6 0.8-0.2 0.5-0.2 1v22.3q0 0.5 0.2 1 0.2 0.4 0.6 0.8 0.3 0.4 0.8 0.6 0.5 0.2 1 0.2h22.3q0.5 0 1-0.2 0.4-0.2 0.8-0.6 0.4-0.4 0.6-0.8 0.2-0.5 0.2-1v-22.3q0-0.5-0.2-1-0.2-0.5-0.6-0.8-0.4-0.4-0.8-0.6-0.5-0.2-1-0.2z"/><path class="d" d="m707.7 255.9h-22.3q-0.5 0.1-1 0.3-0.5 0.1-0.8 0.5-0.4 0.4-0.6 0.9-0.2 0.4-0.2 0.9v22.3q0 0.5 0.2 1 0.2 0.5 0.6 0.8 0.3 0.4 0.8 0.6 0.5 0.2 1 0.2h22.3q0.5 0 1-0.2 0.4-0.2 0.8-0.6 0.4-0.3 0.6-0.8 0.2-0.5 0.2-1v-22.3q0-0.5-0.2-0.9-0.2-0.5-0.6-0.9-0.4-0.4-0.8-0.6-0.5-0.1-1-0.2z"/><path class="c" d="m707.7 293.9h-22.3q-0.5 0-1 0.2-0.5 0.2-0.8 0.6-0.4 0.3-0.6 0.8-0.2 0.5-0.2 1v22.3q0 0.5 0.2 1 0.2 0.4 0.6 0.8 0.3 0.4 0.8 0.6 0.5 0.2 1 0.2h22.3q0.5 0 1-0.2 0.4-0.2 0.8-0.6 0.4-0.4 0.6-0.8 0.2-0.5 0.2-1v-22.3q0-0.5-0.2-1-0.2-0.5-0.6-0.8-0.4-0.4-0.8-0.6-0.5-0.2-1-0.2z"/><path class="b" d="m707.7 331.8h-22.3q-0.5 0.1-1 0.2-0.5 0.2-0.8 0.6-0.4 0.4-0.6 0.9-0.2 0.4-0.2 0.9v22.3q0 0.5 0.2 1 0.2 0.5 0.6 0.8 0.3 0.4 0.8 0.6 0.5 0.2 1 0.2h22.3q0.5 0 1-0.2 0.4-0.2 0.8-0.6 0.4-0.3 0.6-0.8 0.2-0.5 0.2-1v-22.3q0-0.5-0.2-0.9-0.2-0.5-0.6-0.9-0.4-0.4-0.8-0.6-0.5-0.1-1-0.2z"/><path class="b" d="m754.4 180h-22.3q-0.5 0.1-0.9 0.3-0.5 0.1-0.9 0.5-0.3 0.4-0.5 0.9-0.2 0.4-0.2 0.9v22.3q0 0.5 0.2 1 0.2 0.5 0.5 0.9 0.4 0.3 0.9 0.5 0.4 0.2 0.9 0.2h22.3q0.5 0 1-0.2 0.5-0.2 0.9-0.5 0.3-0.4 0.5-0.9 0.2-0.5 0.2-1v-22.3q0-0.5-0.2-0.9-0.2-0.5-0.5-0.9-0.4-0.4-0.9-0.6-0.5-0.1-1-0.2z"/><path class="b" d="m754.4 218h-22.3q-0.5 0-0.9 0.2-0.5 0.2-0.9 0.6-0.3 0.3-0.5 0.8-0.2 0.5-0.2 1v22.3q0 0.5 0.2 1 0.2 0.4 0.5 0.8 0.4 0.4 0.9 0.6 0.4 0.2 0.9 0.2h22.3q0.5 0 1-0.2 0.5-0.2 0.9-0.6 0.3-0.4 0.5-0.8 0.2-0.5 0.2-1v-22.3q0-0.5-0.2-1-0.2-0.5-0.5-0.8-0.4-0.4-0.9-0.6-0.5-0.2-1-0.2z"/><path class="d" d="m754.4 255.9h-22.3q-0.5 0.1-0.9 0.3-0.5 0.1-0.9 0.5-0.3 0.4-0.5 0.9-0.2 0.4-0.2 0.9v22.3q0 0.5 0.2 1 0.2 0.5 0.5 0.8 0.4 0.4 0.9 0.6 0.4 0.2 0.9 0.2h22.3q0.5 0 1-0.2 0.5-0.2 0.9-0.6 0.3-0.3 0.5-0.8 0.2-0.5 0.2-1v-22.3q0-0.5-0.2-0.9-0.2-0.5-0.5-0.9-0.4-0.4-0.9-0.6-0.5-0.1-1-0.2z"/><path class="b" d="m754.4 293.9h-22.3q-0.5 0-0.9 0.2-0.5 0.2-0.9 0.6-0.3 0.3-0.5 0.8-0.2 0.5-0.2 1v22.3q0 0.5 0.2 1 0.2 0.4 0.5 0.8 0.4 0.4 0.9 0.6 0.4 0.2 0.9 0.2h22.3q0.5 0 1-0.2 0.5-0.2 0.9-0.6 0.3-0.4 0.5-0.8 0.2-0.5 0.2-1v-22.3q0-0.5-0.2-1-0.2-0.5-0.5-0.8-0.4-0.4-0.9-0.6-0.5-0.2-1-0.2z"/><path class="b" d="m754.4 331.8h-22.3q-0.5 0.1-0.9 0.2-0.5 0.2-0.9 0.6-0.3 0.4-0.5 0.9-0.2 0.4-0.2 0.9v22.3q0 0.5 0.2 1 0.2 0.5 0.5 0.8 0.4 0.4 0.9 0.6 0.4 0.2 0.9 0.2h22.3q0.5 0 1-0.2 0.5-0.2 0.9-0.6 0.3-0.3 0.5-0.8 0.2-0.5 0.2-1v-22.3q0-0.5-0.2-0.9-0.2-0.5-0.5-0.9-0.4-0.4-0.9-0.6-0.5-0.1-1-0.2z"/><path class="d" d="m801.2 180h-22.3q-0.5 0.1-1 0.3-0.5 0.1-0.8 0.5-0.4 0.4-0.6 0.9-0.2 0.4-0.2 0.9v22.3q0 0.5 0.2 1 0.2 0.5 0.6 0.9 0.3 0.3 0.8 0.5 0.5 0.2 1 0.2h22.3q0.5 0 1-0.2 0.4-0.2 0.8-0.5 0.4-0.4 0.6-0.9 0.2-0.5 0.2-1v-22.3q0-0.5-0.2-0.9-0.2-0.5-0.6-0.9-0.4-0.4-0.8-0.6-0.5-0.1-1-0.2z"/><path class="b" d="m801.2 218h-22.3q-0.5 0-1 0.2-0.5 0.2-0.8 0.6-0.4 0.3-0.6 0.8-0.2 0.5-0.2 1v22.3q0 0.5 0.2 1 0.2 0.4 0.6 0.8 0.3 0.4 0.8 0.6 0.5 0.2 1 0.2h22.3q0.5 0 1-0.2 0.4-0.2 0.8-0.6 0.4-0.4 0.6-0.8 0.2-0.5 0.2-1v-22.3q0-0.5-0.2-1-0.2-0.5-0.6-0.8-0.4-0.4-0.8-0.6-0.5-0.2-1-0.2z"/><path class="b" d="m801.2 255.9h-22.3q-0.5 0.1-1 0.3-0.5 0.1-0.8 0.5-0.4 0.4-0.6 0.9-0.2 0.4-0.2 0.9v22.3q0 0.5 0.2 1 0.2 0.5 0.6 0.8 0.3 0.4 0.8 0.6 0.5 0.2 1 0.2h22.3q0.5 0 1-0.2 0.4-0.2 0.8-0.6 0.4-0.3 0.6-0.8 0.2-0.5 0.2-1v-22.3q0-0.5-0.2-0.9-0.2-0.5-0.6-0.9-0.4-0.4-0.8-0.6-0.5-0.1-1-0.2z"/><path class="b" d="m801.2 293.9h-22.3q-0.5 0-1 0.2-0.5 0.2-0.8 0.6-0.4 0.3-0.6 0.8-0.2 0.5-0.2 1v22.3q0 0.5 0.2 1 0.2 0.4 0.6 0.8 0.3 0.4 0.8 0.6 0.5 0.2 1 0.2h22.3q0.5 0 1-0.2 0.4-0.2 0.8-0.6 0.4-0.4 0.6-0.8 0.2-0.5 0.2-1v-22.3q0-0.5-0.2-1-0.2-0.5-0.6-0.8-0.4-0.4-0.8-0.6-0.5-0.2-1-0.2z"/><path class="d" d="m801.2 331.8h-22.3q-0.5 0.1-1 0.2-0.5 0.2-0.8 0.6-0.4 0.4-0.6 0.9-0.2 0.4-0.2 0.9v22.3q0 0.5 0.2 1 0.2 0.5 0.6 0.8 0.3 0.4 0.8 0.6 0.5 0.2 1 0.2h22.3q0.5 0 1-0.2 0.4-0.2 0.8-0.6 0.4-0.3 0.6-0.8 0.2-0.5 0.2-1v-22.3q0-0.5-0.2-0.9-0.2-0.5-0.6-0.9-0.4-0.4-0.8-0.6-0.5-0.1-1-0.2z"/><path class="d" d="m847.9 180h-22.2q-0.5 0.1-1 0.3-0.5 0.1-0.9 0.5-0.3 0.4-0.5 0.9-0.2 0.4-0.2 0.9v22.3q0 0.5 0.2 1 0.2 0.5 0.5 0.9 0.4 0.3 0.9 0.5 0.5 0.2 1 0.2h22.2q0.6 0 1-0.2 0.5-0.2 0.9-0.5 0.3-0.4 0.5-0.9 0.2-0.5 0.2-1v-22.3q0-0.5-0.2-0.9-0.2-0.5-0.5-0.9-0.4-0.4-0.9-0.6-0.4-0.1-1-0.2z"/><path class="d" d="m847.9 218h-22.2q-0.5 0-1 0.2-0.5 0.2-0.9 0.6-0.3 0.3-0.5 0.8-0.2 0.5-0.2 1v22.3q0 0.5 0.2 1 0.2 0.4 0.5 0.8 0.4 0.4 0.9 0.6 0.5 0.2 1 0.2h22.2q0.6 0 1-0.2 0.5-0.2 0.9-0.6 0.3-0.4 0.5-0.8 0.2-0.5 0.2-1v-22.3q0-0.5-0.2-1-0.2-0.5-0.5-0.8-0.4-0.4-0.9-0.6-0.4-0.2-1-0.2z"/><path class="b" d="m847.9 255.9h-22.2q-0.5 0.1-1 0.3-0.5 0.1-0.9 0.5-0.3 0.4-0.5 0.9-0.2 0.4-0.2 0.9v22.3q0 0.5 0.2 1 0.2 0.5 0.5 0.8 0.4 0.4 0.9 0.6 0.5 0.2 1 0.2h22.2q0.6 0 1-0.2 0.5-0.2 0.9-0.6 0.3-0.3 0.5-0.8 0.2-0.5 0.2-1v-22.3q0-0.5-0.2-0.9-0.2-0.5-0.5-0.9-0.4-0.4-0.9-0.6-0.4-0.1-1-0.2z"/><path class="d" d="m847.9 293.9h-22.2q-0.5 0-1 0.2-0.5 0.2-0.9 0.6-0.3 0.3-0.5 0.8-0.2 0.5-0.2 1v22.3q0 0.5 0.2 1 0.2 0.4 0.5 0.8 0.4 0.4 0.9 0.6 0.5 0.2 1 0.2h22.2q0.6 0 1-0.2 0.5-0.2 0.9-0.6 0.3-0.4 0.5-0.8 0.2-0.5 0.2-1v-22.3q0-0.5-0.2-1-0.2-0.5-0.5-0.8-0.4-0.4-0.9-0.6-0.4-0.2-1-0.2z"/><path class="d" d="m847.9 331.8h-22.2q-0.5 0.1-1 0.2-0.5 0.2-0.9 0.6-0.3 0.4-0.5 0.9-0.2 0.4-0.2 0.9v22.3q0 0.5 0.2 1 0.2 0.5 0.5 0.8 0.4 0.4 0.9 0.6 0.5 0.2 1 0.2h22.2q0.6 0 1-0.2 0.5-0.2 0.9-0.6 0.3-0.3 0.5-0.8 0.2-0.5 0.2-1v-22.3q0-0.5-0.2-0.9-0.2-0.5-0.5-0.9-0.4-0.4-0.9-0.6-0.4-0.1-1-0.2z"/><path class="e" d="m336.1 660.1h-0.6l0.5-0.1 0.1 0.1z"/><path class="f" d="m282.8 245.1c-37.8 0-68.3-30.6-68.3-68.4 0-37.7 30.5-68.3 68.3-68.3 37.8 0 68.3 30.6 68.3 68.3 0 37.8-30.5 68.4-68.3 68.4z"/><path class="b" d="m342.6 126.6c0 0 17.9-34.1-21.4-37.2 0 0-33.5-30.4-67.7-5.6 0 0-18.6 0-28.8 21.1 0 0-14.7-5.6-17.9 9.3 0 0-10.7 31.1 0 59 10.8 28 14.3 31.1 14.3 31.1 0 0-17.6-58.6 25.3-61.7 42.9-3.1 90.9-29.9 94.4 4.2 3.6 34.2 9 42.6 9 42.6 0 0 33.9-48.8-7.2-62.8z"/><path class="g" d="m459.5 345.1l-0.2 1.2-2.4 13-17.1 90.2-1 5.3-2.1 11.2-2.9 15.4-6.5 33.9-1.8 9.7-0.7 3.7-0.2 1.3-2 10-0.5 3.1-4.7 34.5-4.1 30.1 13.7 13.6-8.2 8.1-5.3 30.6h-217.5q-13.2-8.5-26-17.6l1.8-13.4c0 0 6.1-23.9 3.5-26.8-2.6-2.8-8.2-7.9-8.2-7.9l7.1-16.7 1-2.3-1.7-34.4v-0.9l-0.5-11.3-0.1-1.5-0.1-2.2-2.1-43.6-0.1-0.8-0.6-13.2-0.6-12.6-0.3-5.3-2.5-53.1-1.8-36.1-1.5-31.4 6.1-2.1 65.4-22.2 27-35.2 56.4 0.4 27.5 0.2 46.1 42.7 10.4 5 0.1 0.1 7.5 3.6 19.1 9 20.1 9.7 10.3 4.9z"/><path class="f" d="m269.1 557.6c-4.1 1.6-8.5 2.2-13 1.9-4.4-0.3-8.7-1.5-12.6-3.7-3.8-2.1-7.2-5.1-9.8-8.6-2.6-3.6-4.4-7.7-5.3-12.1l-106.5-15.1 37-41.9 95.5 20.8c7.4-1 14.9 0.8 21.1 5 6.1 4.3 10.5 10.6 12.3 17.8 1.8 7.2 0.9 14.9-2.5 21.5-3.5 6.6-9.2 11.7-16.2 14.4z"/><path class="g" d="m221.6 481.4q-0.7-1-1.6-1.8-0.9-0.7-1.9-1.4-1-0.6-2.1-1-1.1-0.5-2.3-0.7l-43.7-9.1-4.5-0.9q-2-0.4-3.8-1.2-1.8-0.8-3.4-2-1.7-1.2-3-2.7-1.3-1.5-2.3-3.2-0.5-0.9-1-1.9-0.4-0.9-0.7-1.9-0.3-1-0.5-2-0.2-1.1-0.3-2.1-0.1-0.9 0-1.9 0-0.9 0.1-1.9 0.1-0.9 0.3-1.8 0.2-1 0.5-1.9l15.2-45.6 9.8-29.6q0.4-1.4 0.8-2.7 0.3-1.4 0.6-2.8 0.3-1.4 0.4-2.8 0.2-1.4 0.3-2.8 0.2-3.9-0.3-7.7-0.5-3.9-1.7-7.6-1.1-3.7-2.9-7.1-1.8-3.4-4.2-6.5c-2.8-3.6-6.1-6.7-9.9-9.2-3.8-2.6-8-4.5-12.3-5.7-4.4-1.2-9-1.7-13.5-1.5-4.6 0.2-9.1 1.1-13.3 2.8q-0.4 0.1-0.8 0.3c-3 1.2-5.9 2.8-8.6 4.6-2.7 1.9-5.2 4.1-7.4 6.6-2.2 2.4-4.1 5.2-5.6 8-1.6 2.9-2.8 6-3.7 9.2l-10.7 38.8-22 80.1c-2.2 8-2.6 16.4-1.3 24.7 1.4 8.2 4.5 16 9.1 22.9 4.7 6.9 10.7 12.7 17.8 17.1 7.2 4.3 15.1 7 23.4 8l62.9 7.4 29.2 3.4c1.7 0.2 3.4 0.1 5-0.3 1.6-0.5 3.1-1.2 4.5-2.2 1.4-0.9 2.5-2.2 3.4-3.6 1-1.4 1.6-3 1.9-4.6q0-0.1 0.1-0.2 0 0 0-0.1 0-0.1 0-0.1 0-0.1 0-0.2l0.7-4.3 6-36.4v-0.4q0.3-1.3 0.2-2.8-0.1-1.4-0.4-2.7-0.4-1.4-1-2.7-0.6-1.2-1.5-2.3z"/><path class="f" d="m337 558.7c4.3 1 8.8 1.1 13.1 0.1 4.3-0.9 8.4-2.7 12-5.4 3.5-2.7 6.4-6.1 8.5-10 2.1-3.9 3.2-8.2 3.5-12.6l103.3-30-42.5-36.3-91.7 34.1c-7.4 0.1-14.6 2.9-20.1 7.9-5.5 5.1-8.9 12-9.7 19.4-0.8 7.4 1.2 14.8 5.5 20.9 4.4 6 10.8 10.3 18.1 11.9z"/><path class="g" d="m528.8 433.7l-49.2-113.2q-1.5-3.4-3.6-6.5-2.1-3.2-4.6-5.9-2.6-2.8-5.7-5-3-2.2-6.4-3.9-1-0.5-2.1-1-1.1-0.4-2.2-0.8-1.1-0.4-2.2-0.8-1.1-0.3-2.3-0.6-0.7-0.2-1.4-0.3-2.4-0.5-4.8-0.8-2.5-0.2-4.9-0.2-2.5 0.1-4.9 0.4-2.5 0.3-4.8 0.9-4.4 1.2-8.5 3.2-4 2-7.5 4.8-3.6 2.8-6.4 6.3-2.9 3.5-5 7.5 0 0 0 0 0 0 0 0 0 0.1 0 0.1-0.1 0-0.1 0c-1.5 3-2.7 6.2-3.5 9.4-0.8 3.3-1.2 6.6-1.3 10 0 3.4 0.4 6.7 1.1 10 0.8 3.3 1.9 6.4 3.4 9.5l0.6 1.2 34.7 69.7c1.2 2.4 1.9 5 2 7.7 0.1 2.7-0.4 5.3-1.4 7.8-1 2.5-2.5 4.7-4.4 6.6-1.9 1.8-4.2 3.2-6.7 4.1l-2.4 0.9-43.9 15.9c-1.6 0.6-3.1 1.4-4.4 2.6-1.3 1.1-2.4 2.5-3.2 4.1-0.7 1.5-1.2 3.2-1.3 4.9-0.2 1.8 0 3.5 0.6 5.2l0.1 0.3 12.3 39.4q0.1 0.2 0.2 0.5 0 0.1 0.1 0.3 0 0.1 0 0.2 0.1 0.1 0.2 0.3 0 0.1 0.1 0.2c0.6 1.5 1.5 2.8 2.6 3.9 1.1 1.2 2.4 2.1 3.9 2.8 1.4 0.7 3 1.1 4.6 1.2 1.5 0.2 3.1 0 4.7-0.4l23.7-6.2 4.8-1.3 61.1-16.2c8.1-2.1 15.6-5.9 22-11.2 6.4-5.3 11.6-11.9 15.3-19.4 3.6-7.5 5.6-15.7 5.7-24 0.2-8.3-1.4-16.6-4.7-24.2z"/><path class="h" d="m44.9 528.7q5.3 6.5 10.8 12.8 5.6 6.3 11.3 12.4 5.7 6.1 11.6 12.1 5.9 5.9 12 11.6h452c2.2 0 4.3 0.5 6.3 1.3 2 0.8 3.8 2 5.3 3.5 1.5 1.6 2.8 3.4 3.6 5.4 0.8 2 1.2 4.1 1.2 6.2l0.7 114.6q10.4-4.8 20.5-10.3 10.1-5.4 19.8-11.5 9.7-6.1 19-12.8 9.3-6.7 18.2-14 9.8-8 19-16.8 6.1-5.8 11.8-11.8 10.8-11.2 20.5-23.3 9.8-12.1 18.4-25 8.7-12.9 16.2-26.6 7.5-13.6 13.7-27.8z"/><path class="c" d="m668 631.4q-5.7 6.1-11.8 11.8h-96.2v-11.8z"/><path class="h" d="m458.6 255.9q-0.3-0.6-0.8-1.1-0.5-0.6-1.2-1-0.6-0.4-1.4-0.6-0.7-0.2-1.4-0.2h-327.9q-1.1 0.1-2.1 0.5-1 0.4-1.8 1.2-0.8 0.8-1.2 1.8-0.4 1-0.4 2.1v196.2h338.9v-196.2q0-0.3 0-0.7-0.1-0.3-0.1-0.7-0.1-0.3-0.3-0.6-0.1-0.3-0.3-0.7z"/><path class="h" d="m120.1 449.5v24.2q0 1.5 0.6 2.9 0.6 1.4 1.6 2.5 1.1 1.1 2.5 1.7 1.4 0.6 2.9 0.6h125.1v47.8h-1.6q-0.2 0-0.4 0-0.2 0.1-0.3 0.2-0.2 0.2-0.2 0.4-0.1 0.1-0.1 0.3v3.4q0 0.2 0.1 0.3 0 0.2 0.2 0.4 0.1 0.1 0.3 0.2 0.2 0.1 0.4 0.1h77.6q0.2 0 0.4-0.1 0.2-0.1 0.3-0.2 0.2-0.2 0.3-0.4 0-0.1 0-0.3v-3.4q0-0.2 0-0.3-0.1-0.2-0.3-0.4-0.1-0.1-0.3-0.2-0.2 0-0.4 0h-1.6v-47.8h125.1q1.5 0 2.9-0.6 1.4-0.6 2.5-1.7 1.1-1.1 1.6-2.5 0.6-1.4 0.6-2.9v-24.2z"/><path class="b" d="m285.9 380c-17.3 0-31.3-14-31.3-31.3 0-17.3 14-31.3 31.3-31.3 17.3 0 31.3 14 31.3 31.3 0 17.3-14 31.3-31.3 31.3z"/><path class="b" d="m365.7 173h-5c0-37.8-37.4-62.6-75.2-62.6q-2 0-4.1 0.1-2 0.1-4.1 0.3-2 0.2-4.1 0.5-2 0.3-4 0.7c-6.1 1.2-12.4 2.7-18.6 4.5-24.3 7.5-46.9 22-46.9 56.5q0 2.5 0.1 5 0.2 2.5 0.5 5 0.3 2.5 0.8 5 0.5 2.4 1.1 4.9l-4.8 1.2q-0.7-2.5-1.2-5.2-0.5-2.6-0.9-5.2-0.3-2.7-0.5-5.4-0.1-2.6-0.1-5.3c0-30.2 12.4-50.9 33.8-63.3 11.2-6.5 24.9-10.7 40.7-12.7q2.4-0.3 4.9-0.5 2.5-0.2 4.9-0.3 2.5-0.1 5 0 2.4 0 4.9 0.2c43.4 3.1 72.8 36.4 72.8 76.6z"/><path class="b" d="m374 175.8l-2-14.6q-0.2-1.4-0.6-2.7-0.4-1.3-1-2.5-0.7-1.2-1.5-2.3-0.9-1.1-1.9-2.1-1.3-1.2-2.9-2.1-1.5-0.9-3.2-1.4-1.8-0.5-3.6-0.6-1.7-0.1-3.5 0.1l-3.2 0.5q-0.6 0.1-1.2 0.3-0.6 0.2-1.2 0.5-0.5 0.3-1 0.8-0.5 0.4-0.9 0.9-0.4 0.5-0.7 1.1-0.3 0.6-0.4 1.2-0.2 0.6-0.2 1.3-0.1 0.6 0 1.3l4.6 33.5q0.1 1 0.5 2 0.5 0.9 1.2 1.7 0.7 0.7 1.6 1.2 0.9 0.5 2 0.7 0.1 0 0.3 0 0.1 0.1 0.3 0.1 0.1 0 0.3 0 0.1 0 0.3 0 0.1 0 0.2 0 0.1 0 0.2 0 0.1 0 0.2 0 0.1 0 0.3-0.1l3.5-0.4q1.6-0.2 3.1-0.8 1.5-0.5 2.9-1.3 1.4-0.9 2.6-1.9 1.2-1.1 2.1-2.5 0.4-0.5 0.8-1.1 0.7-1.2 1.2-2.6 0.4-1.3 0.7-2.7 0.3-1.3 0.3-2.7 0-1.4-0.2-2.8z"/><path class="c" d="m348.6 148.7q-0.3 0.2-0.6 0.4-0.4 0.2-0.7 0.4-0.2 0.3-0.5 0.5-0.3 0.3-0.5 0.6-0.4 0.5-0.7 1.1-0.3 0.6-0.4 1.2-0.2 0.6-0.2 1.3-0.1 0.6 0 1.3l4.6 33.5q0.1 1 0.5 2 0.5 0.9 1.2 1.7 0.7 0.7 1.6 1.2 0.9 0.5 2 0.7z"/><path class="i" d="m374 175.8l-2-14.6q-0.2-1.4-0.6-2.7-0.4-1.3-1-2.5-0.7-1.2-1.5-2.3-0.9-1.1-1.9-2.1l4.6 33.4q0 0.2 0 0.4 0.1 0.2 0.1 0.4 0.1 0.2 0.1 0.4 0.1 0.2 0.2 0.4 0.7-1.2 1.2-2.6 0.4-1.3 0.7-2.7 0.3-1.3 0.3-2.7 0-1.4-0.2-2.8z"/><path class="i" d="m358.4 186.3c-1.3 0.1-2.9-2.8-3.4-6.6-0.5-3.9 0.2-7.1 1.5-7.3 1.4-0.2 2.9 2.8 3.5 6.6 0.5 3.8-0.2 7.1-1.6 7.3z"/><path class="i" d="m355.4 168.3c-1.3 0.1-2.9-2.8-3.4-6.6-0.5-3.9 0.2-7.1 1.5-7.3 1.4-0.2 2.9 2.8 3.5 6.6 0.5 3.8-0.2 7.1-1.6 7.3z"/><path class="i" d="m374.4 175.3c-1.3 0.1-2.9-2.8-3.4-6.6-0.5-3.9 0.2-7.1 1.5-7.3 1.4-0.2 2.9 2.8 3.5 6.6 0.5 3.8-0.2 7.1-1.6 7.3z"/><path class="i" d="m285.5 110.4q-2 0-4.1 0.1-2 0.1-4.1 0.3-2 0.2-4.1 0.5-2 0.3-4 0.7c-6.1 1.2-12.4 2.7-18.6 4.5-9.6-0.4-16.7-2.9-18.1-6.8 11.2-6.5 24.9-10.7 40.7-12.7q2.4-0.3 4.9-0.5 2.5-0.2 4.9-0.3 2.5-0.1 5 0 2.4 0 4.9 0.2 0.5 0.3 1 0.7 0.4 0.4 0.8 0.9 0.3 0.5 0.6 1.1 0.2 0.5 0.3 1.1c0.5 3.5-3.5 7.2-10.1 10.2z"/><path class="b" d="m221.7 207.7l-7.7-32q-0.2-0.9-0.7-1.6-0.4-0.8-1.1-1.4-0.6-0.6-1.4-1-0.8-0.4-1.7-0.6-0.1 0-0.3 0-0.1 0-0.2 0-0.1 0-0.3 0-0.1 0-0.2 0-0.2 0-0.4 0-0.1 0-0.3 0-0.2 0-0.4 0.1-0.1 0-0.3 0l-3 0.7c-1.9 0.5-3.7 1.3-5.3 2.5-1.5 1.1-2.9 2.6-3.9 4.3-1 1.6-1.7 3.5-2 5.4-0.3 1.9-0.2 3.9 0.2 5.8l3.5 14.4q0.3 1.2 0.8 2.4 0.5 1.2 1.1 2.3 0.7 1.1 1.6 2.1 0.8 1 1.8 1.8 0.2 0.1 0.3 0.2 0.2 0.2 0.4 0.3 0.2 0.1 0.3 0.2 0.2 0.1 0.4 0.3 1.2 0.7 2.6 1.3 1.4 0.5 2.9 0.7 1.4 0.3 2.9 0.2 1.5 0 2.9-0.4l3-0.7q0.3-0.1 0.6-0.2 0.3-0.1 0.6-0.2 0.2-0.1 0.5-0.3 0.2-0.1 0.5-0.3 0.7-0.6 1.2-1.3 0.6-0.7 0.9-1.5 0.3-0.9 0.3-1.7 0.1-0.9-0.1-1.8z"/><path class="i" d="m205.5 201.7c-1.3 0.4-3.1-2.4-4-6.2-0.9-3.7-0.6-7 0.8-7.4 1.3-0.3 3.1 2.5 4 6.3 0.9 3.7 0.6 7-0.8 7.3z"/><path class="i" d="m195.5 204.7c-1.3 0.4-3.1-2.4-4-6.2-0.9-3.7-0.6-7 0.8-7.4 1.3-0.3 3.1 2.5 4 6.3 0.9 3.7 0.6 7-0.8 7.3z"/><path class="c" d="m222.2 207.6l-7.7-32q-0.3-1-0.7-1.8-0.5-0.8-1.2-1.5-0.7-0.6-1.6-1.1-0.9-0.4-1.8-0.6l10.5 43.8q0.8-0.6 1.3-1.4 0.6-0.7 1-1.6 0.3-1 0.3-1.9 0.1-1-0.1-1.9z"/><path class="i" d="m194.5 183.6q-0.1-0.4-0.2-0.7-0.1-0.3-0.3-0.6-0.1-0.3-0.3-0.6-0.2-0.3-0.4-0.6-0.4 1.1-0.6 2.2-0.3 1.1-0.4 2.2 0 1.1 0.1 2.2 0.1 1.1 0.3 2.2l3.5 14.4q0.3 1.2 0.8 2.4 0.5 1.2 1.1 2.3 0.7 1.1 1.6 2.1 0.8 1 1.8 1.8z"/></svg>